<?xml version="1.0" encoding="utf-8"?>
<svg version="1.1" x="0px" y="0px" viewBox="0 0 100 100" enable-background="new 0 0 100 100" xmlns="http://www.w3.org/2000/svg">
  <path d="M 32.162 61.434 C 30.621 62.975 30.621 65.475 32.162 67.018 C 33.705 68.561 36.206 68.561 37.747 67.018 C 44.507 60.259 55.505 60.259 62.264 67.018 C 63.807 68.561 66.309 68.561 67.85 67.018 C 68.621 66.247 69.005 65.239 69.005 64.225 C 69.005 63.215 68.62 62.204 67.85 61.434 C 58.01 51.595 42.002 51.595 32.162 61.434 Z"/>
  <path d="M 18.594 48.851 C 17.053 50.393 17.053 52.894 18.594 54.437 C 20.137 55.98 22.637 55.98 24.179 54.437 C 38.419 40.195 61.59 40.195 75.83 54.437 C 77.372 55.98 79.874 55.98 81.414 54.437 C 82.185 53.666 82.572 52.654 82.572 51.644 C 82.572 50.632 82.185 49.623 81.414 48.851 C 73.025 40.461 61.87 35.841 50.005 35.841 C 38.14 35.841 26.985 40.461 18.594 48.851 Z"/>
  <path d="M 6.167 34.82 C 4.625 36.362 4.625 38.863 6.167 40.405 C 7.709 41.947 10.209 41.947 11.751 40.405 C 21.97 30.187 35.556 24.56 50.006 24.56 C 64.456 24.56 78.041 30.187 88.258 40.405 C 89.802 41.947 92.302 41.947 93.843 40.405 C 94.614 39.634 94.999 38.623 94.999 37.612 C 94.999 36.602 94.613 35.591 93.843 34.82 C 82.134 23.11 66.564 16.662 50.006 16.662 C 33.445 16.662 17.876 23.11 6.167 34.82 Z" style="stroke: rgb(0, 0, 0); fill: rgb(255, 255, 255);"/>
  <circle cx="50.006" cy="77.787" r="5.521"/>
</svg>