<?xml version="1.0" encoding="utf-8"?>
<svg version="1.1" x="0px" y="0px" viewBox="0 0 100 100" enable-background="new 0 0 100 100" xmlns="http://www.w3.org/2000/svg">
  <g>
    <path d="M32.162,61.434c-1.541,1.541-1.541,4.041,0,5.584c1.543,1.543,4.044,1.543,5.585,0c6.76-6.759,17.758-6.759,24.517,0   c1.543,1.543,4.045,1.543,5.586,0c0.771-0.771,1.155-1.779,1.155-2.793c0-1.01-0.385-2.021-1.155-2.791   C58.01,51.595,42.002,51.595,32.162,61.434z"/>
    <path d="M18.594,48.851c-1.541,1.542-1.541,4.043,0,5.586c1.543,1.543,4.043,1.543,5.585,0c14.24-14.242,37.411-14.242,51.651,0   c1.542,1.543,4.044,1.543,5.584,0c0.771-0.771,1.158-1.783,1.158-2.793c0-1.012-0.387-2.021-1.158-2.793   c-8.389-8.39-19.544-13.01-31.409-13.01C38.14,35.841,26.985,40.461,18.594,48.851z"/>
    <path d="M6.167,34.82c-1.542,1.542-1.542,4.043,0,5.585c1.542,1.542,4.042,1.542,5.584,0C21.97,30.187,35.556,24.56,50.006,24.56   c14.45,0,28.035,5.627,38.252,15.845c1.544,1.542,4.044,1.542,5.585,0c0.771-0.771,1.156-1.782,1.156-2.793   c0-1.01-0.386-2.021-1.156-2.792C82.134,23.11,66.564,16.662,50.006,16.662C33.445,16.662,17.876,23.11,6.167,34.82z"/>
    <circle cx="50.006" cy="77.787" r="5.521"/>
  </g>
</svg>