<?xml version="1.0" encoding="utf-8"?>
<svg viewBox="4.625 16.662 90.374 66.646" width="1024px" height="1024px" xmlns="http://www.w3.org/2000/svg" xmlns:bx="https://boxy-svg.com">
  <rect x="4.634" y="16.538" width="90.41" height="66.832" style="fill: rgb(216, 216, 216);"/>
  <path d="M 34.995 55.993 C 33.729 57.283 33.729 59.377 34.995 60.669 C 36.263 61.962 38.317 61.962 39.584 60.669 C 45.138 55.009 54.174 55.009 59.728 60.669 C 60.995 61.962 63.051 61.962 64.318 60.669 C 64.95 60.023 65.266 59.18 65.266 58.33 C 65.266 57.484 64.95 56.638 64.318 55.993 C 56.232 47.753 43.079 47.753 34.995 55.993 Z"/>
  <path d="M 23.847 45.455 C 22.58 46.746 22.58 48.841 23.847 50.134 C 25.114 51.426 27.169 51.426 28.435 50.134 C 40.136 38.206 59.173 38.206 70.874 50.134 C 72.14 51.426 74.196 51.426 75.462 50.134 C 76.095 49.488 76.413 48.64 76.413 47.794 C 76.413 46.947 76.095 46.101 75.462 45.455 C 68.569 38.429 59.403 34.56 49.654 34.56 C 39.907 34.56 30.741 38.429 23.847 45.455 Z"/>
  <path d="M 13.636 33.705 C 12.37 34.996 12.37 37.091 13.636 38.382 C 14.904 39.673 16.957 39.673 18.225 38.382 C 26.621 29.825 37.783 25.111 49.656 25.111 C 61.529 25.111 72.691 29.825 81.084 38.382 C 82.353 39.673 84.408 39.673 85.674 38.382 C 86.308 37.736 86.623 36.89 86.623 36.043 C 86.623 35.197 86.306 34.351 85.674 33.705 C 76.053 23.898 63.26 18.498 49.656 18.498 C 36.049 18.498 23.257 23.898 13.636 33.705 Z"/>
  <circle cx="50.006" cy="77.787" r="5.521" transform="matrix(0.82163, 0, 0, 0.837476, 8.569437, 4.543562)" style="fill: rgb(70, 195, 63);"/>
  <path transform="matrix(-0.009072, 0.016118, -0.015463, -0.00989, 60.022923, 69.744286)" d="M 253.937 -23.293 L 378.063 -23.293 L 404.258 166.291 A 329.74 329.74 0 0 1 478.247 196.938 L 630.825 81.405 L 718.595 169.175 L 603.062 321.753 A 329.74 329.74 0 0 1 633.709 395.742 L 823.293 421.937 L 823.293 546.063 L 633.709 572.258 A 329.74 329.74 0 0 1 603.062 646.247 L 718.595 798.825 L 630.825 886.595 L 478.247 771.062 A 329.74 329.74 0 0 1 404.258 801.709 L 378.063 991.293 L 253.937 991.293 L 227.742 801.709 A 329.74 329.74 0 0 1 153.753 771.062 L 1.175 886.595 L -86.595 798.825 L 28.938 646.247 A 329.74 329.74 0 0 1 -1.709 572.258 L -191.293 546.063 L -191.293 421.937 L -1.709 395.742 A 329.74 329.74 0 0 1 28.938 321.753 L -86.595 169.175 L 1.175 81.405 L 153.753 196.938 A 329.74 329.74 0 0 1 227.742 166.291 Z M 316 331.812 A 152.188 152.188 0 0 0 316 636.188 A 152.188 152.188 0 0 0 316 331.812" style="fill: rgb(163, 158, 158); stroke-width: 17.3527px; stroke: rgb(31, 32, 30);" bx:shape="cog 316 484 152.188 329.74 507.293 0.38 8 1@ed930063"/>
</svg>